# xmcd CD database file
#
# Track frame offsets:
#	150
#	13545
#	28487
#	46256
#	63942
#	81989
#	100991
#	123962
#	144149
#	160723
#	176448
#	191643
#	209362
#
# Disc length: 3022 seconds
#
# Revision: 0
# Processed by: cddbd v1.5.2PL0 Copyright (c) Steve Scherf et al.
# Submitted via: CDex 1.51
#
DISCID=a90bcc0d
DTITLE=Ric Lee's Natural Born Swingers - Put A Record On
DYEAR=2012
DGENRE=Blues
TTITLE0=I Want To Know
TTITLE1=Don't Want You Woman
TTITLE2=Put A Record On
TTITLE3=The Hills Of Afghanistan
TTITLE4=Keep On Singing The Blues
TTITLE5=It's Too Late
TTITLE6=I Don't Play Boogie
TTITLE7=Bad Feeling Blues
TTITLE8=It Don't Mean A Thing To You
TTITLE9=A Fool Like Me
TTITLE10=Passing On Blues
TTITLE11=Rock Your Mama
TTITLE12=I Can't Get My Ass In Gear
EXTD=YEAR: 2012
EXTT0=
EXTT1=
EXTT2=
EXTT3=
EXTT4=
EXTT5=
EXTT6=
EXTT7=
EXTT8=
EXTT9=
EXTT10=
EXTT11=
EXTT12=
PLAYORDER=
